<mxfile host="app.diagrams.net" modified="2024-06-07T10:45:26.449Z" agent="Mozilla/5.0 (Windows NT 10.0; Win64; x64) AppleWebKit/537.36 (KHTML, like Gecko) Chrome/125.0.0.0 Safari/537.36" version="24.5.1" etag="XtvQKnnwO1eef71x1Gfp" type="github">
  <diagram name="Page-1" id="y8KFsXV4wOykvNRH6Yc8">
    <mxGraphModel>
      <root>
        <mxCell id="0" />
        <mxCell id="1" parent="0" />
      </root>
    </mxGraphModel>
  </diagram>
</mxfile>
